<svg xmlns="http://www.w3.org/2000/svg" viewBox="0 0 613.81 244.79"><defs><style>.cls-1{fill:#c85e16;}.cls-2{fill:#010101;}.cls-3{fill:#fff;}.cls-4{fill:none;}.cls-5{fill:#cf5f23;}.cls-6{fill:#dd8446;}.cls-7{fill:#f28e2b;}.cls-8{fill:#da8035;}.cls-9{fill:#be4617;}</style></defs><title>Teamarcade_logo_2</title><g id="Laag_2" data-name="Laag 2"><g id="Laag_1-2" data-name="Laag 1"><g id="welkom"><g id="Laag_2-2" data-name="Laag 2"><g id="Laag_1-2-2" data-name="Laag 1-2"><polygon class="cls-1" points="522.36 103.92 498.92 103.92 498.92 79.57 472.94 79.57 472.94 57.65 448.58 57.65 448.58 44.66 479.1 44.66 479.1 0 429.9 0 429.9 30.56 407.98 30.56 407.98 56.02 340.59 56.02 340.59 30.56 319.48 30.56 319.48 0 270.29 0 270.29 44.66 300.81 44.66 300.81 53.59 277.27 53.59 277.27 82 250.47 82 250.47 95.11 67.46 95.11 67.53 108.5 77.54 108.5 77.54 178.62 505.33 176.94 501.8 139.3 522.36 141.27 522.36 103.92"/><rect class="cls-2" x="309.38" y="188.77" width="52.25" height="26.13"/><rect class="cls-3" x="283.24" y="12.99" width="26.13" height="26.13"/><rect class="cls-2" x="387.77" y="188.76" width="52.25" height="26.13"/><rect class="cls-2" x="440.02" y="138.88" width="26.13" height="49.88"/><rect class="cls-3" x="440.02" y="12.99" width="26.13" height="26.13"/><polygon class="cls-3" points="371.85 244.79 489.99 244.79 489.99 233.83 498.92 233.83 498.92 224.09 506.22 224.09 508.66 224.09 508.66 244.79 613.81 244.79 613.81 219.62 550.47 219.62 550.47 205.82 600.81 205.82 600.81 180.65 550.47 180.65 550.47 166.85 613.81 166.85 613.81 141.68 517.1 141.68 510.28 141.27 490.39 138.43 409.2 138.43 409.2 165.22 397.02 165.22 397.02 152.23 387.28 152.23 387.28 138.43 331.26 138.43 331.26 152.23 318.27 152.23 318.27 165.22 311.77 165.22 311.77 152.23 294.72 152.23 294.72 138.43 233.02 138.43 233.02 149.8 219.21 149.8 219.21 161.97 207.85 161.97 207.85 138.43 102.3 138.43 102.3 165.22 95.81 165.22 95.81 152.23 79.57 152.23 79.57 138.43 28.42 138.43 28.42 152.23 13.8 152.23 13.8 165.22 0 165.22 0 244.79 42.23 244.79 42.23 217.19 67.38 217.19 67.38 244.79 142.9 244.79 142.9 230.18 149.39 230.18 149.39 239.11 155.89 239.11 155.89 244.79 208.66 244.79 208.66 230.18 213.53 230.18 213.53 223.68 219.21 223.68 219.21 234.24 226.52 234.24 226.52 244.79 297.97 244.79 297.97 233.42 306.09 233.42 306.09 244.79 346.68 244.79 346.68 217.19 371.85 217.19 371.85 244.79"/><path class="cls-3" d="M74.26,104.33V99.27H104.6v5.06H94.49v30.34H84.37V104.33Z"/><path class="cls-3" d="M145.44,99.27v5.06H120.16v10.12h20.23v5.06H120.16v10.11h25.28v5.06H110V99.27Z"/><path class="cls-3" d="M156.06,109.38v-5.06h5v-5h15.17v5.06h5.06v5.06h5.05v25.28H176.28V124.56h-15.2v10.11H151V109.38Zm5,10.12h15.17V109.38h-5.06v-5.06h-5.06v5.06h-5Z"/><path class="cls-3" d="M202,99.27v5.06h5.06v5.06h5.06v-5.06h5.06V99.27h10.1v35.4H217.2V119.5h-5.06v5.06h-5.06V119.5H202v15.17h-10.1V99.27Z"/><polygon class="cls-4" points="137.62 186.74 137.62 199.73 162.79 199.73 162.79 186.74 174.97 186.74 174.97 173.75 174.97 160.76 137.62 160.76 137.62 173.75 137.62 186.74"/><polygon class="cls-5" points="161.16 238.7 200.95 238.7 200.95 225.71 187.96 225.71 161.16 225.71 161.16 238.7"/><polygon class="cls-6" points="149.8 225.71 161.16 225.71 187.96 225.71 187.96 212.72 174.97 212.72 149.8 212.72 149.8 225.71"/><polygon class="cls-7" points="137.62 199.73 111.64 199.73 111.64 212.72 137.62 212.72 149.8 212.72 174.97 212.72 174.97 199.73 162.79 199.73 137.62 199.73"/><polygon class="cls-6" points="162.79 186.74 162.79 199.73 174.97 199.73 200.95 199.73 200.95 186.74 174.97 186.74 162.79 186.74"/><rect class="cls-8" x="174.97" y="173.75" width="25.98" height="12.99"/><rect class="cls-5" x="174.97" y="160.76" width="25.98" height="12.99"/><rect class="cls-5" x="111.64" y="160.76" width="25.98" height="12.99"/><rect class="cls-8" x="111.64" y="173.75" width="25.98" height="12.99"/><rect class="cls-6" x="111.64" y="186.74" width="25.98" height="12.99"/><rect class="cls-8" x="111.64" y="212.72" width="25.98" height="12.99"/><rect class="cls-5" x="111.64" y="225.71" width="25.98" height="12.99"/><polygon class="cls-9" points="111.64 147.77 111.64 160.76 137.62 160.76 174.97 160.76 200.95 160.76 200.95 147.77 111.64 147.77"/><polygon class="cls-5" points="238.29 238.7 290.26 238.7 290.26 225.71 277.26 225.71 252.1 225.71 238.29 225.71 238.29 238.7"/><polygon class="cls-6" points="226.12 225.71 238.29 225.71 252.1 225.71 252.1 212.72 239.11 212.72 226.12 212.72 226.12 225.71"/><polygon class="cls-6" points="303.25 225.71 303.25 212.72 277.26 212.72 277.26 225.71 290.26 225.71 303.25 225.71"/><polygon class="cls-7" points="213.13 212.72 226.12 212.72 239.11 212.72 239.11 199.73 213.13 199.73 213.13 212.72"/><rect class="cls-6" x="213.13" y="186.74" width="25.98" height="12.99"/><polygon class="cls-8" points="213.13 173.75 213.13 186.74 239.11 186.74 239.11 173.75 226.12 173.75 213.13 173.75"/><polygon class="cls-5" points="226.12 160.76 226.12 173.75 239.11 173.75 252.1 173.75 252.1 160.76 238.29 160.76 226.12 160.76"/><polygon class="cls-5" points="303.25 173.75 303.25 160.76 290.26 160.76 277.26 160.76 277.26 173.75 303.25 173.75"/><polygon class="cls-9" points="290.26 147.77 238.29 147.77 238.29 160.76 252.1 160.76 277.26 160.76 290.26 160.76 290.26 147.77"/><polygon class="cls-4" points="60.49 160.76 48.31 160.76 48.31 173.75 36.13 173.75 36.13 186.74 36.13 199.73 73.48 199.73 73.48 186.74 73.48 173.75 60.49 173.75 60.49 160.76"/><polygon class="cls-7" points="36.13 199.73 10.15 199.73 10.15 212.72 36.13 212.72 73.48 212.72 99.46 212.72 99.46 199.73 73.48 199.73 36.13 199.73"/><polygon class="cls-5" points="60.49 173.75 73.48 173.75 86.47 173.75 86.47 160.76 73.48 160.76 60.49 160.76 60.49 173.75"/><polygon class="cls-5" points="48.31 173.75 48.31 160.76 35.32 160.76 22.33 160.76 22.33 173.75 36.13 173.75 48.31 173.75"/><polygon class="cls-8" points="86.47 173.75 73.48 173.75 73.48 186.74 99.46 186.74 99.46 173.75 86.47 173.75"/><rect class="cls-6" x="73.48" y="186.74" width="25.98" height="12.99"/><rect class="cls-8" x="73.48" y="212.72" width="25.98" height="12.99"/><rect class="cls-5" x="73.48" y="225.71" width="25.98" height="12.99"/><polygon class="cls-8" points="36.13 173.75 22.33 173.75 10.15 173.75 10.15 186.74 36.13 186.74 36.13 173.75"/><rect class="cls-6" x="10.15" y="186.74" width="25.98" height="12.99"/><rect class="cls-8" x="10.15" y="212.72" width="25.98" height="12.99"/><rect class="cls-5" x="10.15" y="225.71" width="25.98" height="12.99"/><polygon class="cls-9" points="60.49 160.76 73.48 160.76 73.48 147.77 35.32 147.77 35.32 160.76 48.31 160.76 60.49 160.76"/><polygon class="cls-4" points="364.95 160.76 352.77 160.76 352.77 173.75 340.59 173.75 340.59 186.74 340.59 199.73 377.94 199.73 377.94 186.74 377.94 173.75 364.95 173.75 364.95 160.76"/><polygon class="cls-7" points="340.59 199.73 314.61 199.73 314.61 212.72 340.59 212.72 377.94 212.72 403.92 212.72 403.92 199.73 377.94 199.73 340.59 199.73"/><polygon class="cls-5" points="364.95 173.75 377.94 173.75 390.93 173.75 390.93 160.76 377.94 160.76 364.95 160.76 364.95 173.75"/><polygon class="cls-5" points="352.77 173.75 352.77 160.76 339.78 160.76 326.79 160.76 326.79 173.75 340.59 173.75 352.77 173.75"/><polygon class="cls-8" points="390.93 173.75 377.94 173.75 377.94 186.74 403.92 186.74 403.92 173.75 390.93 173.75"/><rect class="cls-6" x="377.94" y="186.74" width="25.98" height="12.99"/><rect class="cls-8" x="377.94" y="212.72" width="25.98" height="12.99"/><rect class="cls-5" x="377.94" y="225.71" width="25.98" height="12.99"/><polygon class="cls-8" points="340.59 173.75 326.79 173.75 314.61 173.75 314.61 186.74 340.59 186.74 340.59 173.75"/><rect class="cls-6" x="314.61" y="186.74" width="25.98" height="12.99"/><rect class="cls-8" x="314.61" y="212.72" width="25.98" height="12.99"/><rect class="cls-5" x="314.61" y="225.71" width="25.98" height="12.99"/><polygon class="cls-9" points="364.95 160.76 377.94 160.76 377.94 147.77 339.78 147.77 339.78 160.76 352.77 160.76 364.95 160.76"/><polygon class="cls-4" points="467.25 160.76 442.89 160.76 442.89 173.75 442.89 186.74 442.89 199.73 442.89 212.72 442.89 225.71 467.25 225.71 467.25 212.72 480.24 212.72 480.24 199.73 480.24 186.74 480.24 173.75 467.25 173.75 467.25 160.76"/><rect class="cls-7" x="416.91" y="199.73" width="25.98" height="12.99"/><polygon class="cls-7" points="480.24 212.72 493.23 212.72 506.22 212.72 506.22 199.73 480.24 199.73 480.24 212.72"/><rect class="cls-5" x="416.91" y="160.76" width="25.98" height="12.99"/><polygon class="cls-5" points="467.25 173.75 480.24 173.75 493.23 173.75 493.23 160.76 480.24 160.76 467.25 160.76 467.25 173.75"/><rect class="cls-8" x="416.91" y="173.75" width="25.98" height="12.99"/><polygon class="cls-8" points="493.23 173.75 480.24 173.75 480.24 186.74 506.22 186.74 506.22 173.75 493.23 173.75"/><rect class="cls-6" x="416.91" y="186.74" width="25.98" height="12.99"/><rect class="cls-6" x="480.24" y="186.74" width="25.98" height="12.99"/><rect class="cls-8" x="416.91" y="212.72" width="25.98" height="12.99"/><polygon class="cls-8" points="467.25 212.72 467.25 225.71 480.24 225.71 493.23 225.71 493.23 212.72 480.24 212.72 467.25 212.72"/><polygon class="cls-5" points="442.89 225.71 416.91 225.71 416.91 238.7 480.24 238.7 480.24 225.71 467.25 225.71 442.89 225.71"/><polygon class="cls-9" points="467.25 160.76 480.24 160.76 480.24 147.77 416.91 147.77 416.91 160.76 442.89 160.76 467.25 160.76"/><rect class="cls-7" x="518.4" y="199.73" width="25.98" height="12.99"/><rect class="cls-5" x="518.4" y="160.76" width="25.98" height="12.99"/><rect class="cls-8" x="518.4" y="173.75" width="25.98" height="12.99"/><polygon class="cls-6" points="518.4 199.73 544.38 199.73 594.72 199.73 594.72 186.74 544.38 186.74 518.4 186.74 518.4 199.73"/><rect class="cls-8" x="518.4" y="212.72" width="25.98" height="12.99"/><polygon class="cls-5" points="518.4 238.7 607.71 238.7 607.71 225.71 544.38 225.71 518.4 225.71 518.4 238.7"/><polygon class="cls-9" points="607.71 160.76 607.71 147.77 518.4 147.77 518.4 160.76 544.38 160.76 607.71 160.76"/><polygon class="cls-7" points="227.31 134.82 227.31 192.29 261.03 192.29 261.03 134.78 227.31 134.82"/><path class="cls-3" d="M466.15,86.63V62.87H440V39.12H413.89V62.87H335.5V39.12H309.38V62.87H283.24V86.62H257.11v26.14H231v76h26.12V138.88h37.23v16.9l8.1.31h6.94v11.15h11.86l.63-11.56H335.5V142.2l48.65.7.25,14.46,10.55-.11.59,10.91,16.5-.91,1.85-4.64V139.94L440,138.88h52.25V86.63ZM335.5,112.76H309.37V89H335.5Zm104.52,0H413.88V89H440Z"/></g></g></g><polygon class="cls-7" points="488.64 134.82 488.64 192.29 522.36 192.29 522.36 134.78 488.64 134.82"/><polygon class="cls-3" points="499.42 112.75 492.27 112.75 487.35 112.75 487.35 138.88 492.27 138.88 492.27 188.76 518.39 188.76 518.39 112.75 499.42 112.75"/></g></g></svg>