<svg xmlns="http://www.w3.org/2000/svg" viewBox="0 0 40.25 40.25"><defs><style>.cls-1{fill:#fff;}.cls-2{fill:none;stroke:#be4819;stroke-miterlimit:10;stroke-width:0.25px;}</style></defs><title>icon-customwebsite-hover</title><g id="Laag_2" data-name="Laag 2"><g id="Laag_1-2" data-name="Laag 1"><path class="cls-1" d="M10.4,22.75H7.67v5.42H5V20H7.65V17.28h2.73V14.55h2.71V11.84H10.41V9.13h2.68v2.69h2.73v2.72H24v-2.7h2.73V9.13h2.7v2.71H26.77v2.71h2.69v2.73h2.73V20h2.7v8.17H32.21V22.76H29.48v5.43H26.75V30.9H21.31V28.19h5.41v-2.7H13.13v2.69h5.41v2.71H13.13V28.2H10.4Zm5.43-5.43H13.14V20h2.69ZM24,20h2.67V17.31H24Z"/><rect class="cls-2" x="0.13" y="0.13" width="40" height="40"/></g></g></svg>